<svg version="1.1" id="Layer_1" xmlns="http://www.w3.org/2000/svg" xmlns:xlink="http://www.w3.org/1999/xlink" x="0" y="0" width="88.7" height="88.7" style="enable-background:new 0 0 88.7 88.7" xml:space="preserve"><style>.st1{fill-rule:evenodd;clip-rule:evenodd;fill:#175ed9}</style><defs><circle id="SVGID_1_" cx="44.3" cy="44.3" r="38.3"/></defs><clipPath id="SVGID_2_"><use xlink:href="#SVGID_1_" style="overflow:visible"/></clipPath><g style="clip-path:url(#SVGID_2_)"><path class="st1" d="M84.9 110.7c-11.1 0-21.2-4.5-28.5-11.8S44.6 81.5 44.6 70.4s4.5-21.2 11.8-28.5 17.4-11.8 28.5-11.8 21.2 4.5 28.5 11.8c7.3 7.3 11.8 17.4 11.8 28.5s-4.5 21.2-11.8 28.5-17.4 11.8-28.5 11.8zM59.2 96.1c6.6 6.6 15.7 10.6 25.7 10.6s19.1-4.1 25.7-10.6c6.6-6.6 10.6-15.7 10.6-25.7s-4.1-19.1-10.6-25.7C104 38.1 95 34 84.9 34c-10 0-19.1 4.1-25.7 10.6-6.6 6.6-10.6 15.7-10.6 25.7 0 10.1 4 19.2 10.6 25.8z"/><path class="st1" d="M72.1 98.4c-7.6 0-14.5-3.1-19.5-8.1s-8.1-11.9-8.1-19.5 3.1-14.5 8.1-19.5 11.9-8.1 19.5-8.1 14.5 3.1 19.5 8.1 8.1 11.9 8.1 19.5-3.1 14.5-8.1 19.5-11.9 8.1-19.5 8.1zM55.3 87.5c4.3 4.3 10.2 6.9 16.8 6.9 6.5 0 12.5-2.7 16.8-6.9 4.3-4.3 6.9-10.2 6.9-16.8 0-6.5-2.7-12.5-6.9-16.8-4.3-4.2-10.3-6.9-16.8-6.9s-12.5 2.7-16.8 6.9c-4.3 4.3-6.9 10.2-6.9 16.8 0 6.6 2.6 12.5 6.9 16.8z"/><path class="st1" d="M95.8 117.7c-14.5 0-27.7-5.9-37.2-15.4-9.5-9.6-15.4-22.7-15.4-37.3 0-14.5 5.9-27.7 15.4-37.2s22.7-15.4 37.2-15.4 27.7 5.9 37.2 15.4 15.4 22.7 15.4 37.2-5.9 27.7-15.4 37.2c-9.5 9.6-22.7 15.5-37.2 15.5zM61.4 99.5c8.8 8.8 21 14.3 34.5 14.3s25.6-5.5 34.4-14.3 14.3-21 14.3-34.4c0-13.5-5.5-25.6-14.3-34.5-8.8-8.8-21-14.3-34.4-14.3-13.5 0-25.6 5.5-34.5 14.3-8.8 8.8-14.3 21-14.3 34.5 0 13.4 5.4 25.5 14.3 34.4z"/><path class="st1" d="M4.3 106.7c10 0 19.1-4.1 25.7-10.6 6.6-6.6 10.6-15.7 10.6-25.7S36.5 51.3 30 44.7C23.4 38.1 14.3 34 4.3 34s-19.1 4.1-25.7 10.6C-28 51.2-32 60.3-32 70.3s4.1 19.1 10.6 25.7c6.6 6.7 15.7 10.7 25.7 10.7zm28.5-7.8c-7.3 7.3-17.4 11.8-28.5 11.8s-21.2-4.5-28.5-11.8S-36 81.5-36 70.4s4.5-21.2 11.8-28.5S-6.8 30.1 4.3 30.1s21.2 4.5 28.5 11.8 11.8 17.4 11.8 28.5-4.5 21.2-11.8 28.5z"/><path class="st1" d="M17.1 94.4c6.5 0 12.5-2.7 16.8-6.9 4.3-4.3 6.9-10.2 6.9-16.8 0-6.5-2.7-12.5-6.9-16.8-4.3-4.2-10.2-6.9-16.8-6.9-6.5 0-12.4 2.7-16.7 7s-6.9 10.2-6.9 16.8c0 6.5 2.7 12.5 6.9 16.8 4.3 4.2 10.2 6.8 16.7 6.8zm19.6-4.1c-5 5-11.9 8.1-19.5 8.1S2.6 95.3-2.4 90.3s-8.1-11.9-8.1-19.5 3.1-14.5 8.1-19.5 11.9-8.1 19.5-8.1 14.5 3.1 19.5 8.1 8.1 11.9 8.1 19.5-3 14.5-8 19.5z"/><path class="st1" d="M-6.6 113.7c13.5 0 25.6-5.5 34.5-14.3 8.8-8.8 14.3-21 14.3-34.4 0-13.5-5.5-25.6-14.3-34.5-8.9-8.8-21-14.2-34.5-14.2S-32.2 21.8-41 30.6s-14.3 21-14.3 34.5 5.5 25.6 14.3 34.4 21 14.2 34.4 14.2zm37.2-11.5c-9.5 9.5-22.7 15.4-37.2 15.4s-27.7-5.9-37.2-15.4S-59.2 79.5-59.2 65s5.9-27.7 15.4-37.2 22.7-15.4 37.2-15.4 27.7 5.9 37.2 15.4S46 50.5 46 65c.1 14.6-5.8 27.7-15.4 37.2z"/><path class="st1" d="M43.3 53.3c-.1-1.4-.2-2.8-.2-4.2 0-14.5 5.9-27.7 15.4-37.2C68.1 2.3 81.3-3.6 95.8-3.6s27.7 5.9 37.2 15.4 15.4 22.7 15.4 37.2c0 1.4-.1 2.8-.2 4.2h-3.9c.1-1.4.2-2.8.2-4.2 0-13.5-5.5-25.6-14.3-34.5C121.4 5.7 109.2.2 95.8.2 82.3.2 70.2 5.7 61.3 14.5 52.5 23.3 47 35.5 47 49c0 1.4.1 2.8.2 4.2l-3.9.1z"/><path class="st1" d="M43.3 53.3c-.1-1.4-.2-2.8-.2-4.2 0-14.5 5.9-27.7 15.4-37.2C68.1 2.3 81.3-3.6 95.8-3.6s27.7 5.9 37.2 15.4 15.4 22.7 15.4 37.2c0 1.4-.1 2.8-.2 4.2h-3.9c.1-1.4.2-2.8.2-4.2 0-13.5-5.5-25.6-14.3-34.5C121.4 5.7 109.2.2 95.8.2 82.3.2 70.2 5.7 61.3 14.5 52.5 23.3 47 35.5 47 49c0 1.4.1 2.8.2 4.2l-3.9.1z"/><path class="st1" d="M45.3 53.3c.1-1.4.2-2.8.2-4.2 0-14.5-5.9-27.7-15.4-37.2C20.6 2.3 7.4-3.6-7.1-3.6s-27.7 5.9-37.2 15.4S-59.7 34.5-59.7 49c0 1.4.1 2.8.2 4.2h3.9c-.1-1.4-.2-2.8-.2-4.2 0-13.5 5.5-25.6 14.3-34.5C-32.7 5.7-20.5.2-7.1.2 6.4.2 18.5 5.7 27.4 14.5s14.3 21 14.3 34.5c0 1.4-.1 2.8-.2 4.2l3.8.1z"/><path class="st1" d="M13.5 34.2C2.3 34.2-7.7 29.7-15 22.4S-26.8 5.1-26.8-6.1c0-11.1 4.5-21.2 11.8-28.5S2.3-46.4 13.5-46.4c11.1 0 21.2 4.5 28.5 11.8S53.8-17.2 53.8-6.1 49.3 15.1 42 22.4 24.6 34.2 13.5 34.2zm-25.7-14.6c6.6 6.6 15.7 10.6 25.7 10.6s19.1-4.1 25.7-10.6S49.8 4 49.8-6.1c0-10-4.1-19.1-10.6-25.7-6.6-6.6-15.7-10.6-25.7-10.6s-19.1 4.1-25.7 10.6c-6.6 6.6-10.6 15.7-10.6 25.7-.1 10.1 4 19.2 10.6 25.7z"/><path class="st1" d="M75 34.2c-11.1 0-21.2-4.5-28.5-11.8S34.7 5.1 34.7-6.1c0-11.1 4.5-21.2 11.8-28.5S63.9-46.4 75-46.4s21.2 4.5 28.5 11.8 11.8 17.4 11.8 28.5-4.5 21.2-11.8 28.5S86.1 34.2 75 34.2zM49.3 19.6C55.9 26.2 65 30.2 75 30.2s19.1-4.1 25.7-10.6c6.6-6.6 10.6-15.7 10.6-25.7s-4.1-19.1-10.6-25.7C94.1-38.4 85-42.4 75-42.4s-19.1 4.1-25.7 10.6c-6.6 6.6-10.6 15.7-10.6 25.7-.1 10.1 4 19.2 10.6 25.7zm-8 54.5h7v18.2h-7z"/></g><path class="st1" d="M44.3 88.7c-12.2 0-23.3-5-31.4-13-8-8-13-19.1-13-31.4C0 32.1 5 21 13 13S32.1 0 44.3 0s23.3 5 31.4 13c8 8 13 19.1 13 31.4 0 12.2-5 23.3-13 31.4-8 7.9-19.1 12.9-31.4 12.9zM18.6 70c6.6 6.6 15.7 10.6 25.7 10.6S63.4 76.5 70 70c6.6-6.6 10.6-15.7 10.6-25.7S76.5 25.2 70 18.6C63.5 12.1 54.4 8 44.3 8c-10 0-19.1 4.1-25.7 10.6C12.1 25.2 8 34.3 8 44.3 8 54.4 12.1 63.5 18.6 70z"/></svg>