<svg xmlns="http://www.w3.org/2000/svg" xmlns:xlink="http://www.w3.org/1999/xlink">
    <defs>
        <symbol viewBox="0 0 14 8" id="sprite-arrow">
            <path d="M7 7.8c-.2 0-.4-.1-.6-.2L.8 2 2 .8l5 5 5-5L13.2 2 7.6 7.6c-.2.2-.4.2-.6.2z"/>
        </symbol>
        <symbol viewBox="0 0 18 21" id="sprite-bell">
            <path d="m17.6 14.5-.2-.3c-1-1.2-1.7-2-1.7-5.5 0-3.2-1.3-5.3-4-6.4C11.4.9 10.3 0 9 0 7.7 0 6.6.9 6.2 2.3 3.6 3.4 2.3 5.5 2.3 8.7c0 3.5-.6 4.3-1.7 5.5l-.2.3c-.4.5-.5 1.2-.2 1.8.3.6.9 1 1.6 1h3.5c0 1 .4 1.9 1.1 2.6C7.1 20.6 8 21 9 21s1.9-.4 2.7-1.1c.7-.7 1.1-1.7 1.1-2.6h3.5c.7 0 1.3-.4 1.6-1 .2-.6.2-1.3-.3-1.8zm-7 4.3c-.8.9-2.3.9-3.2 0-.4-.4-.7-1-.7-1.6h4.5c.1.6-.2 1.2-.6 1.6zm5.7-3H1.8c-.2 0-.2-.1-.3-.1v-.2l.2-.3c1.1-1.4 2-2.4 2-6.5 0-3.3 1.6-4.4 3-5 .4-.2.8-.5.9-1 .2-.6.7-1.2 1.4-1.2s1.2.6 1.3 1.2c.1.4.5.8.9 1 1.4.6 3 1.7 3 5 0 4.1.9 5.1 2 6.5l.2.3v.2c.1 0 0 .1-.1.1z"/>
        </symbol>
        <symbol viewBox="0 0 16 12" id="sprite-check">
            <path d="M5 12c-.3 0-.5-.1-.7-.3l-4-4c-.4-.4-.4-1 0-1.4s1-.4 1.4 0L5 9.6 14.3.3c.4-.4 1-.4 1.4 0s.4 1 0 1.4l-10 10c-.2.2-.4.3-.7.3z"/>
        </symbol>
        <symbol viewBox="0 0 11.2 11.2" id="sprite-close">
            <path d="m11 9.5-4-4 3.9-3.9c.4-.4.4-1 0-1.3s-1-.4-1.3 0L5.7 4.2l-4-4C1.3-.2.7-.2.4.2c-.4.4-.4 1 0 1.4l4 4-4.1 4c-.4.4-.4 1 0 1.3s1 .4 1.3 0l4.1-4.1 4 4c.4.4 1 .4 1.3 0s.3-.9 0-1.3z"/>
        </symbol>
        <symbol viewBox="0 0 448 512" id="sprite-doc">
            <path style="fill:#e2e5e7"
                  d="M96 0C78.4 0 64 14.4 64 32v448c0 17.6 14.4 32 32 32h320c17.6 0 32-14.4 32-32V128L320 0H96z"/>
            <path style="fill:#b0b7bd" d="M352 128h96L320 0v96c0 17.6 14.4 32 32 32z"/>
            <path style="fill:#cad1d8" d="m448 224-96-96h96z"/>
            <path style="fill:#50bee8"
                  d="M384 416c0 8.8-7.2 16-16 16H16c-8.8 0-16-7.2-16-16V256c0-8.8 7.2-16 16-16h352c8.8 0 16 7.2 16 16v160z"/>
            <path style="fill:#fff"
                  d="M60.6 384c-4.2 0-8.8-2.3-8.8-7.9v-72.7c0-4.6 4.6-7.9 8.8-7.9h29.3c58.5 0 57.2 88.5 1.1 88.5H60.6zm8-72.9v57.3h21.2c34.5 0 36.1-57.3 0-57.3H68.6zM196 385.3c-23.7 1-48.2-14.7-48.2-46.1 0-31.5 24.6-46.9 48.2-46.9 22.4 1.1 45.8 16.6 45.8 46.9 0 30.4-23.4 46.1-45.8 46.1zm-1.4-76.4c-14.3 0-29.9 10.1-29.9 30.3 0 20.1 15.6 30.3 29.9 30.3 14.7 0 30.4-10.2 30.4-30.3 0-20.2-15.7-30.3-30.4-30.3zm62.2 30.2c0-24.7 15.5-45.9 44.9-45.9 11.1 0 20 3.3 29.3 11.4 3.5 3.2 3.8 8.8.4 12.4-3.5 3.1-8.7 2.7-11.8-.4-5.2-5.5-10.6-7-17.9-7-19.7 0-29.2 14-29.2 29.6 0 15.9 9.3 30.4 29.2 30.4 7.3 0 14.1-3 20-8.2 4-3.1 9.5-1.6 11.8 1.5 2 2.8 3.1 7.6-1.4 12-9 8.3-19.7 10-30.3 10-31 0-45-21.1-45-45.8z"/>
            <path style="fill:#cad1d8" d="M368 432H64v16h304c8.8 0 16-7.2 16-16v-16c0 8.8-7.2 16-16 16z"/>
        </symbol>
        <symbol viewBox="0 0 18 18" id="sprite-filter">
            <path d="M15 18c-.6 0-1-.4-1-1v-1.2c-.4-.1-.8-.4-1.1-.7-.6-.5-.9-1.3-.9-2.1s.3-1.6.9-2.1c.3-.3.7-.6 1.1-.7V1c0-.6.4-1 1-1s1 .4 1 1v9.2c.4.1.8.4 1.1.7.6.6.9 1.3.9 2.1s-.3 1.6-.9 2.1c-.3.3-.7.6-1.1.7V17c0 .6-.4 1-1 1zm0-4c.3 0 .5-.1.7-.3s.3-.4.3-.7-.1-.5-.3-.7c-.4-.4-1-.4-1.4 0-.2.2-.3.4-.3.7s.1.5.3.7.4.3.7.3zm-6 4c-.6 0-1-.4-1-1V7.8c-.4-.1-.8-.4-1.1-.7C6.3 6.6 6 5.8 6 5s.3-1.6.9-2.1c.3-.3.7-.6 1.1-.7V1c0-.6.4-1 1-1s1 .4 1 1v1.2c.4.1.8.4 1.1.7.6.5.9 1.3.9 2.1s-.3 1.6-.9 2.1c-.3.3-.7.6-1.1.7V17c0 .6-.4 1-1 1zM9 4c-.3 0-.5.1-.7.3-.2.2-.3.4-.3.7s.1.5.3.7c.4.4 1 .4 1.4 0 .2-.2.3-.4.3-.7s-.1-.5-.3-.7C9.5 4.1 9.3 4 9 4zM3 18c-.6 0-1-.4-1-1v-1.2c-.4-.1-.8-.4-1.1-.7-.6-.5-.9-1.3-.9-2.1s.3-1.6.9-2.1c.3-.3.7-.6 1.1-.7V1c0-.6.4-1 1-1s1 .4 1 1v9.2c.4.1.8.4 1.1.7.6.5.9 1.3.9 2.1s-.3 1.6-.9 2.1c-.3.3-.7.6-1.1.7V17c0 .6-.4 1-1 1zm0-4c.3 0 .5-.1.7-.3.2-.2.3-.4.3-.7s-.1-.5-.3-.7c-.4-.4-1-.4-1.4 0-.2.2-.3.4-.3.7s.1.5.3.7c.2.2.4.3.7.3z"/>
        </symbol>
        <symbol viewBox="0 0 448 512" id="sprite-pdf">
            <path style="fill:#e2e5e7"
                  d="M96 0C78.4 0 64 14.4 64 32v448c0 17.6 14.4 32 32 32h320c17.6 0 32-14.4 32-32V128L320 0H96z"/>
            <path style="fill:#b0b7bd" d="M352 128h96L320 0v96c0 17.6 14.4 32 32 32z"/>
            <path style="fill:#cad1d8" d="m448 224-96-96h96z"/>
            <path style="fill:#f15642"
                  d="M384 416c0 8.8-7.2 16-16 16H16c-8.8 0-16-7.2-16-16V256c0-8.8 7.2-16 16-16h352c8.8 0 16 7.2 16 16v160z"/>
            <path style="fill:#fff"
                  d="M69.7 303.2c0-4.2 3.3-8.8 8.7-8.8H108c16.6 0 31.6 11.1 31.6 32.5 0 20.2-15 31.5-31.6 31.5H86.6v16.9c0 5.6-3.6 8.8-8.2 8.8-4.2 0-8.7-3.2-8.7-8.8v-72.1zm16.9 7.2v31.9H108c8.6 0 15.4-7.6 15.4-15.5 0-8.9-6.8-16.4-15.4-16.4H86.6zm78.1 73.6c-4.2 0-8.8-2.3-8.8-7.9v-72.7c0-4.6 4.6-7.9 8.8-7.9H194c58.5 0 57.2 88.5 1.2 88.5h-30.5zm8-72.9v57.3H194c34.5 0 36.1-57.3 0-57.3h-21.3zm99.2 1v20.3h32.6c4.6 0 9.2 4.6 9.2 9.1 0 4.2-4.6 7.7-9.2 7.7h-32.6v26.9c0 4.5-3.2 7.9-7.7 7.9-5.6 0-9.1-3.4-9.1-7.9v-72.7c0-4.6 3.5-7.9 9.1-7.9h44.9c5.6 0 9 3.3 9 7.9 0 4.1-3.3 8.7-9 8.7h-37.2z"/>
            <path style="fill:#cad1d8" d="M368 432H64v16h304c8.8 0 16-7.2 16-16v-16c0 8.8-7.2 16-16 16z"/>
        </symbol>
        <symbol viewBox="0 0 16.8 16.9" id="sprite-pencil">
            <path d="M3.8 16.9h-3c-.4 0-.8-.4-.8-.9v-3c0-.2.1-.4.2-.6L11.8.9c1.1-1.1 3.1-1.1 4.2 0 .6.6.9 1.3.9 2.1s-.3 1.5-.9 2.1l-1.2 1.2L4.4 16.6c-.2.2-.4.3-.6.3zm-2.1-1.7h1.8L13 5.7l-1.8-1.8-9.5 9.5v1.8zM12.3 2.7l1.8 1.8.7-.7c.2-.2.4-.6.4-.9 0-.3-.1-.7-.4-.9-.5-.5-1.3-.5-1.8 0l-.7.7z"/>
        </symbol>
        <symbol viewBox="0 0 21.2 19.1" id="sprite-photo">
            <path class="st0"
                  d="M18.1 19.1h-15c-.8 0-1.6-.3-2.2-.9-.6-.6-.9-1.4-.9-2.3V6.3c0-.8.3-1.6.9-2.2s1.4-.9 2.2-.9h1c.2 0 .4 0 .5-.1.2-.1.4-.2.5-.4L6 1.4c.3-.4.7-.8 1.1-1C7.5.1 8 0 8.5 0h4.1c.5 0 1 .1 1.5.4.5.2.8.6 1.1 1l.9 1.3c.1.2.2.3.4.4s.3.1.5.1h1c.8 0 1.6.3 2.2.9.6.6.9 1.4.9 2.2v9.6c0 .8-.3 1.6-.9 2.2-.5.6-1.3 1-2.1 1zM3.1 5.2c-.3 0-.6.1-.8.3S2 6 2 6.3v9.6c0 .3.1.6.3.8.2.2.5.3.8.3H18c.3 0 .6-.1.8-.3.2-.2.3-.5.3-.8V6.3c0-.3-.1-.6-.3-.8-.2-.2-.5-.3-.8-.3h-1c-.5 0-1-.1-1.5-.4-.5-.2-.8-.6-1.1-1l-.9-1.3c-.1-.2-.2-.3-.4-.4s-.2-.1-.4-.1H8.5c-.1 0-.3 0-.5.1s-.3.3-.4.4l-.9 1.3c-.3.4-.7.8-1.1 1-.5.2-1 .4-1.5.4h-1z"/>
            <path class="st0"
                  d="M10.6 14.8c-1.1 0-2.2-.4-3-1.2-.8-.8-1.2-1.8-1.2-3 0-1.1.4-2.2 1.2-3 .8-.8 1.9-1.2 3-1.2s2.2.4 3 1.2c.8.8 1.2 1.9 1.2 3s-.4 2.2-1.2 3-1.9 1.2-3 1.2zm0-6.4c-.6 0-1.1.2-1.6.6-.4.4-.6 1-.6 1.6 0 .6.2 1.1.6 1.6.8.8 2.3.8 3.1 0 .4-.4.6-1 .6-1.6s-.2-1.1-.6-1.6c-.3-.4-.9-.6-1.5-.6z"/>
        </symbol>
        <symbol viewBox="0 0 33 39" id="sprite-play">
            <path d="M33 19.5 0 39V0l33 19.5z"/>
        </symbol>
        <symbol viewBox="0 0 21 21" id="sprite-plus">
            <path d="M10.5 21c-.6 0-1-.4-1-1v-8.5H1c-.6 0-1-.4-1-1s.4-1 1-1h8.5V1c0-.6.4-1 1-1s1 .4 1 1v8.5H20c.6 0 1 .4 1 1s-.4 1-1 1h-8.5V20c0 .6-.4 1-1 1z"/>
        </symbol>
        <symbol viewBox="0 0 15 27" id="sprite-question">
            <path class="st0"
                  d="M5.3 18.8c0-1.4.2-2.5.5-3.3.3-.8.9-1.7 1.8-2.7l2.3-2.4c1-1.1 1.5-2.3 1.5-3.6 0-1.2-.3-2.2-1-2.9-.7-.6-1.6-1-2.9-1-1.2 0-2.2.3-2.9.9-.7.7-1 1.5-1 2.6H.3c0-1.9.7-3.4 2-4.6C3.6.6 5.4 0 7.5 0c2.2 0 3.9.6 5.2 1.8C14 3 14.6 4.7 14.6 6.7c0 2.1-.9 4.1-2.8 6.1l-1.9 1.9c-.9.9-1.4 2.3-1.4 4.1H5.3zm-.2 5.6c0-.5.2-1 .5-1.3.3-.4.8-.5 1.4-.5s1.1.2 1.4.5c.4.3.6.7.6 1.3 0 .5-.2 1-.5 1.3-.3.3-.8.5-1.4.5s-1.2-.2-1.5-.5c-.3-.4-.5-.8-.5-1.3z"/>
        </symbol>
        <symbol viewBox="0 0 20 25" id="sprite-tree">
            <path d="M10.8 19.3v5c0 .5-.3.8-.8.8-.4 0-.7-.3-.7-.8v-5c-1.5 1-3 1.4-4.7 1.1-1.2-.2-2.2-.9-2.9-1.7-1.4-1.6-2-4.3 0-6.7C.2 10.7-.3 9.2.5 7.3 1.2 5.7 2.6 5 4.4 4.9c0-.4 0-.7.1-.9.7-2.4 3.1-4.1 5.8-4 2.6.1 4.8 1.9 5.3 4.4.1.3.2.4.6.5 1.8.1 3 1 3.6 2.6.6 1.6.1 3-1.2 4.2l-.1.1v.1c.9 1.1 1.4 2.4 1.2 3.9-.1 1.2-.7 2.3-1.6 3.1-1.9 1.8-4.4 2-7.3.4zm0-8.6.2.1c.3-.3.5-.6.8-.9.4-.4.9-.5 1.2-.2.3.3.3.8-.1 1.2-.6.6-1.2 1.1-1.8 1.7-.2.2-.3.4-.3.6v2.9c0 .6.1 1 .6 1.4 1.6 1.6 4.1 1.7 5.7.1 1.6-1.5 1.5-4-.2-5.4-.7-.6-.6-1.1.2-1.5 1.2-.6 1.7-1.8 1.3-2.9-.4-1.2-1.6-1.8-2.9-1.6-1 .2-1.2 0-1.3-1-.1-2-1.6-3.6-3.6-3.9-2-.1-3.9 1.1-4.6 2.9-.1.4-.1.9-.2 1.4 0 .6-.4.9-1.1.8h-.3c-.6-.1-1.2 0-1.7.4-.5.2-.9.7-1 1.2-.4 1.2.2 2.3 1.4 2.9.7.4.8.9.2 1.4l-.1.1c-.5.4-.8.9-1 1.5s-.4 1.1-.3 1.7c.1.6.3 1.2.6 1.7s.8.9 1.4 1.2c1.6.8 3.4.5 4.7-.7.4-.5.7-.8.7-1.5 0-.4-.1-.8-.5-1.1-.8-.8-1.7-1.5-2.4-2.4-.1-.1-.2-.2-.2-.4V12c0-.2.3-.5.6-.5s.6.1.8.3c.6.5 1.1 1 1.8 1.7V6.1c0-.6.3-.9.8-.9s.8.3.8.9V10l-.2.7z"/>
        </symbol>
    </defs>
</svg>